<?xml version="1.0" standalone="no"?>
<!DOCTYPE svg PUBLIC "-//W3C//DTD SVG 20010904//EN"
 "http://www.w3.org/TR/2001/REC-SVG-20010904/DTD/svg10.dtd">
<svg version="1.0" xmlns="http://www.w3.org/2000/svg"
 width="270.000000pt" height="270.000000pt" viewBox="0 0 270.000000 270.000000"
 preserveAspectRatio="xMidYMid meet">
<metadata>
Created by potrace 1.14, written by Peter Selinger 2001-2017
</metadata>
<g transform="translate(0.000000,270.000000) scale(0.100000,-0.100000)"
fill="#000000" stroke="none">
<path d="M0 1350 l0 -1350 1350 0 1350 0 0 1350 0 1350 -1350 0 -1350 0 0
-1350z m1423 899 c40 -23 92 -53 117 -67 25 -14 92 -53 150 -87 58 -34 158
-92 223 -129 98 -57 117 -71 117 -91 0 -35 36 -53 -450 227 -91 53 -181 105
-201 116 l-35 19 -130 -74 c-71 -41 -147 -85 -169 -98 -22 -12 -125 -72 -230
-133 -104 -60 -205 -118 -222 -128 l-33 -19 0 -385 c0 -423 -3 -460 -31 -460
-18 0 -19 17 -19 434 l0 435 29 20 c16 12 31 21 34 21 2 0 42 22 88 49 122 71
458 265 574 332 55 32 104 58 108 58 4 1 40 -18 80 -40z m-27 -178 c5 -5 29
-20 54 -34 104 -58 308 -175 345 -199 22 -14 45 -27 50 -29 28 -11 155 -92
155 -99 0 -4 -6 -13 -13 -19 -11 -8 -44 7 -142 64 -70 41 -129 75 -130 75 -1
0 -42 23 -91 51 -49 29 -109 63 -134 77 -78 44 -150 92 -150 101 0 21 37 29
56 12z m730 -251 c5 0 14 10 19 21 13 29 29 29 33 2 5 -31 62 -34 62 -3 0 11
5 20 10 20 6 0 10 -14 10 -31 0 -26 3 -29 20 -24 31 10 49 -11 47 -55 -1 -40
-13 -50 -48 -42 -14 3 -15 8 -6 32 6 16 7 33 3 37 -5 4 -11 2 -13 -4 -7 -21
-23 -15 -23 8 0 30 -54 23 -58 -8 -5 -31 -24 -29 -56 7 -26 30 -60 33 -35 4
14 -17 -2 -41 -20 -30 -12 8 -15 99 -4 110 4 4 17 -4 28 -18 12 -14 25 -26 31
-26z m-750 -50 c39 -5 96 -18 127 -30 104 -39 198 -150 212 -251 4 -24 13 -65
22 -91 13 -44 13 -56 -6 -148 -33 -162 -84 -236 -204 -295 -111 -54 -310 -73
-415 -39 -81 26 -82 32 -82 424 0 280 2 336 16 370 9 22 17 40 18 40 0 0 19 7
41 15 46 16 167 19 271 5z m798 -97 c3 -21 6 -214 6 -429 0 -360 -1 -392 -17
-406 -19 -16 -148 -94 -328 -198 -60 -35 -130 -76 -155 -91 -111 -68 -162 -90
-176 -78 -8 6 -14 15 -14 19 0 4 118 76 263 160 144 84 285 167 314 184 28 16
54 39 57 50 3 12 6 202 6 424 0 386 1 402 19 402 14 0 20 -10 25 -37z m-1454
-349 c0 -352 -1 -375 -17 -372 -17 3 -18 30 -21 376 -2 367 -2 372 18 372 20
0 20 -6 20 -376z m1274 -370 c4 -9 5 -18 4 -19 -6 -6 -191 -115 -194 -115 -2
0 -27 -15 -56 -32 -29 -18 -129 -77 -223 -130 -163 -93 -184 -100 -185 -63 0
6 84 60 188 120 103 60 212 123 242 141 127 74 196 112 206 113 7 1 15 -6 18
-15z m-1554 -93 c0 -12 9 -20 24 -23 29 -6 46 8 46 36 0 15 3 17 11 9 8 -8 18
-8 34 -1 56 25 108 -26 83 -80 -14 -30 -54 -40 -86 -23 -13 7 -22 7 -29 0 -7
-7 -13 -2 -17 15 -5 21 -13 26 -36 26 -25 0 -30 -4 -30 -25 0 -14 -4 -25 -10
-25 -6 0 -10 27 -10 61 0 37 4 58 10 54 6 -3 10 -14 10 -24z m379 -142 c69
-40 154 -89 188 -110 34 -22 65 -39 68 -39 3 0 35 -19 71 -41 47 -30 62 -44
52 -50 -24 -16 -43 -9 -133 42 -50 29 -106 61 -125 72 -197 110 -260 152 -260
174 0 13 3 23 6 23 4 0 63 -32 133 -71z m441 -273 c0 -17 7 -25 24 -28 29 -6
46 8 46 36 0 15 3 17 11 9 8 -8 18 -8 34 -1 56 25 108 -26 83 -80 -14 -30 -54
-40 -86 -23 -13 7 -22 7 -29 0 -7 -7 -13 -2 -17 15 -5 21 -13 26 -36 26 -25 0
-30 -4 -30 -25 0 -14 -4 -25 -10 -25 -6 0 -10 27 -10 60 0 33 4 60 10 60 6 0
10 -11 10 -24z"/>
<path d="M1251 1641 c-85 -22 -105 -90 -99 -341 4 -179 11 -207 61 -244 43
-31 174 -30 237 2 62 33 97 68 116 119 24 61 8 80 -92 114 -74 25 -79 28 -79
55 0 21 5 30 20 32 53 9 155 55 160 72 16 49 -56 143 -134 176 -44 19 -144 26
-190 15z"/>
<path d="M567 868 c-20 -10 -23 -58 -5 -76 18 -18 36 -14 53 12 26 40 -9 86
-48 64z m33 -43 c0 -14 -4 -25 -9 -25 -5 0 -11 11 -13 25 -4 17 -1 25 8 25 8
0 14 -11 14 -25z"/>
<path d="M1386 447 c-22 -16 -18 -66 6 -81 25 -15 63 23 53 53 -9 30 -38 43
-59 28z m34 -42 c0 -14 -4 -25 -9 -25 -5 0 -11 11 -13 25 -4 17 -1 25 8 25 8
0 14 -11 14 -25z"/>
</g>
</svg>
